<svg id="Capa_1" data-name="Capa 1" xmlns="http://www.w3.org/2000/svg" viewBox="0 0 1366 6502"><title>mascara-blanca</title><path d="M2544,6763C661.39,7433,25.67,7250.94-208,6963c-97.15-119.71-116.16-248.09,32-1704C-40,3922.55,17.29,3627.43-20,3036c-35.58-564.33-107.18-607.1-141-1149C-211.36,1080.09-100.34,417.7,1-15l983-3c5.42-4.75,13.14-10.41,18-8,17.88,8.86.38,128.8-66,220-58.87,80.89-112.44,76-140,151-12.5,34-10.37,63.87-6.17,123.54a793.21,793.21,0,0,0,57,243c19.29,47.31,40.54,87.44,108,192,124.57,193.13,187.75,289.83,231,297,96.9,16.13,215.05-114.77,303-294Q1462.14,1181.46,1450,1457,1334.37,4080.83,2544,6763Z" style="fill:#fff"/></svg>