<svg id="Capa_1" data-name="Capa 1" xmlns="http://www.w3.org/2000/svg" viewBox="0 0 1366 6502"><title>mascara-blanca</title><path d="M2544,6763C661.39,7433,25.67,7250.94-208,6963c-97.15-119.71-116.16-248.09,32-1704C-40,3922.55,17.29,3627.43-20,3036c-35.58-564.33-107.18-607.1-141-1149C-211.36,1080.09-100.34,417.7,1-15l983-3c5.42-4.75,13.14-10.41,18-8,17.88,8.86.38,128.8-66,220-66.06,90.77-137.86,94.43-140,151-1.89,49.87,53.73,52,80,136,21.26,68-4.5,100.62,29,154,7.94,12.66,32,51,71,58,52.28,9.33,86-46,147-82,81.3-48,197.7-53.92,257-24,259.74,131.06,70,870,70,870h0C1382.72,2178.88,1544.8,3618.32,2544,6763Z" style="fill:#fff"/></svg>