<svg id="Capa_1" data-name="Capa 1" xmlns="http://www.w3.org/2000/svg" viewBox="0 0 1366 3198"><title>mascara-blanca-top</title><path d="M810,1103c-656.6-83.58-885.11,6.69-964,116-15.57,21.57-64.11,97.65-92,88-33.42-11.56-19.61-140.08-2-250L-14,.1l1308-4C698.87,288.35,596.85,441.55,615.5,527.6c13.61,62.79,89,75.88,214,240,117.74,154.56,116.79,207.09,158,218,105.39,27.9,306.59-426.91,380.5-400.6,53.31,19-38.24,264,22,500,3.14,12.3,7.85,29.12,0,46C1350.94,1215,1064.13,1164.64,810,1103Z" style="fill:#fff"/></svg>